<svg width="1024" height="1024" viewBox="0 0 1024 1024" fill="none" xmlns="http://www.w3.org/2000/svg">
  <defs>
    <linearGradient id="bgGrad" x1="96" y1="84" x2="938" y2="944" gradientUnits="userSpaceOnUse">
      <stop offset="0" stop-color="#F2FCFF"/>
      <stop offset="0.5" stop-color="#E5F7FF"/>
      <stop offset="1" stop-color="#D8EEFF"/>
    </linearGradient>

    <linearGradient id="fishGrad" x1="284" y1="300" x2="768" y2="752" gradientUnits="userSpaceOnUse">
      <stop offset="0" stop-color="#00D9CC"/>
      <stop offset="0.55" stop-color="#00B7D6"/>
      <stop offset="1" stop-color="#2A66F5"/>
    </linearGradient>

    <linearGradient id="waveGrad" x1="346" y1="426" x2="774" y2="618" gradientUnits="userSpaceOnUse">
      <stop offset="0" stop-color="#0FD5C8"/>
      <stop offset="1" stop-color="#2F85FF"/>
    </linearGradient>

    <radialGradient id="glowGrad" cx="0" cy="0" r="1" gradientUnits="userSpaceOnUse" gradientTransform="translate(520 520) rotate(90) scale(348)">
      <stop offset="0" stop-color="#33D9E8" stop-opacity="0.24"/>
      <stop offset="1" stop-color="#33D9E8" stop-opacity="0"/>
    </radialGradient>

    <filter id="softShadow" x="186" y="180" width="654" height="662" filterUnits="userSpaceOnUse" color-interpolation-filters="sRGB">
      <feFlood flood-opacity="0" result="BackgroundImageFix"/>
      <feColorMatrix in="SourceAlpha" type="matrix" values="0 0 0 0 0 0 0 0 0 0 0 0 0 0 0 0 0 0 127 0" result="hardAlpha"/>
      <feOffset dy="14"/>
      <feGaussianBlur stdDeviation="15"/>
      <feComposite in2="hardAlpha" operator="out"/>
      <feColorMatrix type="matrix" values="0 0 0 0 0.14 0 0 0 0 0.32 0 0 0 0 0.52 0 0 0 0.28 0"/>
      <feBlend mode="normal" in2="BackgroundImageFix" result="effect1_dropShadow"/>
      <feBlend mode="normal" in="SourceGraphic" in2="effect1_dropShadow" result="shape"/>
    </filter>
  </defs>

  <rect width="1024" height="1024" rx="228" fill="#FFFFFF"/>
  <rect x="72" y="72" width="880" height="880" rx="192" fill="url(#bgGrad)"/>
  <circle cx="520" cy="520" r="304" fill="url(#glowGrad)"/>

  <g filter="url(#softShadow)">
    <path d="M760 512C760 584 707 651 624 692C565 721 494 734 418 730C449 696 468 654 468 611C468 569 449 528 418 493C494 489 565 502 624 531C707 573 760 442 760 512Z" fill="url(#fishGrad)"/>

    <path d="M408 496C440 530 458 568 458 611C458 654 440 692 408 726C339 712 284 682 251 642C226 614 214 583 214 552C214 520 226 489 251 461C284 422 339 392 408 496Z" fill="url(#fishGrad)"/>

    <path d="M284 520L194 468L212 569L284 520Z" fill="url(#fishGrad)"/>
    <path d="M286 596L202 660L294 684L326 628L286 596Z" fill="url(#fishGrad)"/>

    <ellipse cx="656" cy="510" rx="19" ry="19" fill="#0A3A52"/>
    <circle cx="662" cy="504" r="6" fill="#E8FFFF"/>

    <path d="M330 438C398 414 472 405 548 414" stroke="url(#waveGrad)" stroke-width="18" stroke-linecap="round"/>
    <path d="M338 490C410 468 486 461 564 472" stroke="url(#waveGrad)" stroke-width="15" stroke-linecap="round" opacity="0.92"/>
    <path d="M348 542C426 526 504 525 582 540" stroke="url(#waveGrad)" stroke-width="13" stroke-linecap="round" opacity="0.86"/>
    <path d="M362 594C442 588 520 592 596 612" stroke="url(#waveGrad)" stroke-width="11" stroke-linecap="round" opacity="0.8"/>

    <path d="M486 376C540 350 596 342 650 352" stroke="url(#waveGrad)" stroke-width="10" stroke-linecap="round" opacity="0.78"/>
    <path d="M492 660C548 676 602 683 656 675" stroke="url(#waveGrad)" stroke-width="10" stroke-linecap="round" opacity="0.74"/>
  </g>
</svg>
